<svg width="196" height="175" viewBox="0 0 196 175" fill="none" xmlns="http://www.w3.org/2000/svg">
<path d="M27.7407 49.8163L24.2823 50.9516L26.0463 56.3255L19.3954 58.5086L17.6314 53.1347L2.14823 58.2171L0 51.6727L4.45942 21.4462L12.0148 18.9662L7.55537 49.1926L15.4832 46.5903L13.1603 39.5138L19.8112 37.3306L22.134 44.4071L25.5925 43.2719L27.7407 49.8163Z" fill="#EAECF0" style="fill:#EAECF0;fill:color(display-p3 0.9176 0.9255 0.9412);fill-opacity:1;"/>
<path d="M53.5195 35.1657C55.8948 42.4018 51.9015 48.1921 45.7295 50.218C39.5575 52.244 32.8562 49.9643 30.481 42.7282L25.2414 26.7661C22.8661 19.53 26.9126 13.7223 33.0846 11.6963C39.2566 9.67034 45.9047 11.9675 48.2799 19.2037L53.5195 35.1657ZM46.5852 37.383L41.398 21.5806C40.3501 18.3881 37.8416 17.0308 35.1281 17.9215C32.4145 18.8122 31.1453 21.4096 32.1932 24.602L37.3804 40.4045C38.4283 43.5969 40.9725 44.8836 43.6861 43.9928C46.3996 43.1021 47.6331 40.5754 46.5852 37.383Z" fill="#EAECF0" style="fill:#EAECF0;fill:color(display-p3 0.9176 0.9255 0.9412);fill-opacity:1;"/>
<path d="M85.52 30.8502L82.0615 31.9854L83.8255 37.3593L77.1747 39.5424L75.4107 34.1686L59.9275 39.2509L57.7793 32.7065L62.2387 2.48007L69.7941 0L65.3346 30.2264L73.2625 27.6241L70.9396 20.5476L77.5904 18.3645L79.9133 25.441L83.3717 24.3057L85.52 30.8502Z" fill="#EAECF0" style="fill:#EAECF0;fill:color(display-p3 0.9176 0.9255 0.9412);fill-opacity:1;"/>
<path d="M177.868 78.6087L184.349 84.2193C183.479 70.4104 171.616 62.5098 171.616 62.5098L178.647 63.3571C178.372 55.7542 168.525 47.2811 168.525 47.2811L172.349 46.5254C172.349 46.5254 168.296 38.6248 154.716 37.7546C162.479 32.9684 166.647 18.587 166.647 18.587L160.166 21.6099L151.968 23.7625C151.968 23.7625 157.235 18.587 158.883 8.28189C147.662 15.6329 129.067 18.587 129.067 18.587C129.067 18.587 129.891 13.1368 135.502 8.37349C124.716 4.04533 107.953 22.9839 107.953 22.9839L108.754 12.9535C108.754 12.9535 97.51 14.9917 93.5253 30.4494C72.2507 29.6708 63.4111 47.9223 63.4111 47.9223L73.785 47.0521C73.785 47.0521 64.7164 48.7696 56.9531 64.6624C61.4645 60.4258 65.9759 62.9678 65.9759 62.9678C65.9759 62.9678 64.2813 63.5403 60.0676 71.1432C55.831 78.7461 57.2508 90.5855 57.2508 90.5855H57.2279C57.2279 90.5855 59.4951 157.912 84.9834 163.912C93.2734 165.859 103.235 173.759 116.586 174.79C170.975 179.026 188.677 111.814 182.631 91.9595C183.204 86.3261 177.891 78.5629 177.891 78.5629L177.868 78.6087ZM149.265 79.6392C149.265 91.7534 139.441 101.578 127.327 101.578L106.831 101.578C94.7161 101.578 84.8918 91.7534 84.8918 79.6392C84.8918 67.5249 94.7161 57.7007 106.831 57.7007H127.327C139.441 57.7007 149.265 67.5249 149.265 79.6392Z" fill="white" style="fill:white;fill-opacity:1;"/>
<path d="M178.538 63.3576C178.24 63.3576 177.989 63.1515 177.966 62.8538C176.981 56.1211 167.592 47.9457 167.5 47.8541L167.821 46.8236L171.828 46.4114C165.027 36.1521 153.439 39.0146 152.935 39.152L152.592 38.0299C152.592 38.0299 162.554 34.1368 165.851 19.9845C162.325 22.4119 154.08 24.1752 152.134 24.5874L151.538 23.6485C151.538 23.6485 155.477 18.3127 158.088 9.54193C153.989 13.2747 147.577 14.7174 140.821 16.2288C137.203 17.0303 133.47 17.8776 129.806 19.0914C129.485 19.2059 129.165 19.0227 129.05 18.7249C128.936 18.4043 129.119 18.0837 129.416 17.9692C133.149 16.7326 136.905 15.8853 140.546 15.0838C148.401 13.3205 155.203 11.8091 158.798 7L159.851 7.50381C157.882 15.3586 154.79 20.8089 153.302 23.1218C158.844 21.8623 165.805 19.641 166.241 17.8776L167.386 18.1295C165.37 29.6255 159.416 35.2132 155.821 37.5948C160.264 37.3658 168.302 38.2589 173.294 46.6175L172.859 47.5106L169.218 47.8999C171.737 50.2586 178.24 56.8539 179.088 62.7164C179.134 63.037 178.905 63.3347 178.584 63.3805C178.561 63.3805 178.515 63.3805 178.492 63.3805L178.538 63.3576Z" fill="#1B1B1B" style="fill:#1B1B1B;fill:color(display-p3 0.1059 0.1059 0.1059);fill-opacity:1;"/>
<path d="M67.2525 43.3212L66.3594 42.5425L67.1838 41.5807C71.283 36.7946 77.4203 29.581 93.382 30.1306C94.8935 15.4057 109.779 12.2455 109.939 12.1997L110.557 13.0928C110.557 13.0928 107.832 17.3751 108.542 21.8407C116.97 11.1691 127.16 6.03948 135.954 8.03181L135.679 9.17682C127.069 7.2074 116.97 12.5661 108.703 23.5353L107.672 23.3521C106.504 19.4362 107.924 15.6118 108.886 13.6882C105.267 14.7874 95.4431 18.8407 94.5271 30.7718L93.9087 31.3214C78.1074 30.5657 72.0845 37.6419 68.0998 42.3364L67.2525 43.3212Z" fill="#1B1B1B" style="fill:#1B1B1B;fill:color(display-p3 0.1059 0.1059 0.1059);fill-opacity:1;"/>
<path d="M57.4503 64.4117L56.3281 64.0224C56.3739 63.9079 60.6563 51.725 73.8929 47.0304L74.2822 48.1525C61.5724 52.6639 57.4732 64.2972 57.4274 64.4117H57.4503Z" fill="#1B1B1B" style="fill:#1B1B1B;fill:color(display-p3 0.1059 0.1059 0.1059);fill-opacity:1;"/>
<path d="M56.0221 84.7023C55.9763 84.29 55.2664 74.3513 67.3121 64.0691L68.0678 64.9622C56.503 74.8322 57.19 84.4962 57.19 84.5878L56.0221 84.6793V84.7023Z" fill="#1B1B1B" style="fill:#1B1B1B;fill:color(display-p3 0.1059 0.1059 0.1059);fill-opacity:1;"/>
<path d="M183.94 84.93C182.841 70.3654 171.161 63.5869 171.047 63.5411L171.619 62.5106C171.734 62.5793 183.963 69.6326 185.108 84.8384L183.94 84.93Z" fill="#1B1B1B" style="fill:#1B1B1B;fill:color(display-p3 0.1059 0.1059 0.1059);fill-opacity:1;"/>
<path d="M180.312 82.7992C180.312 82.7992 186.77 95.5089 183.496 110.325L180.312 82.7992Z" fill="white" style="fill:white;fill-opacity:1;"/>
<path d="M184.079 110.465L182.934 110.213C186.117 95.7856 179.843 83.1904 179.797 83.0759L180.85 82.5492C180.919 82.6866 187.377 95.6253 184.102 110.488L184.079 110.465Z" fill="#1B1B1B" style="fill:#1B1B1B;fill:color(display-p3 0.1059 0.1059 0.1059);fill-opacity:1;"/>
<path d="M60.9417 110.119C60.9417 110.119 53.728 117.47 52.125 131.645C52.125 131.691 52.1708 131.714 52.1937 131.668C57.9188 126.378 61.789 124.569 62.4073 124.317C62.4302 124.317 62.4761 124.317 62.4532 124.363C61.9722 125.508 56.9799 137.989 58.3769 149.691C58.3769 149.737 58.4227 149.737 58.4456 149.691C59.041 148.752 60.0715 145.065 64.2852 141.401C64.2852 141.401 66.0256 152.347 70.4454 158.324L77.1324 153.927" fill="white" style="fill:white;fill-opacity:1;"/>
<path d="M69.9516 158.715C66.2647 153.723 64.4326 145.502 63.883 142.594C61.1807 145.181 60.0586 147.678 59.4174 149.052C59.2113 149.487 59.0739 149.807 58.9365 150.036L58.7075 150.38L57.8144 150.197V149.693C56.5777 139.731 59.9899 129.266 61.3868 125.487C59.738 126.403 56.6464 128.35 52.593 132.105L52.3182 132.357L51.5625 132.105V131.647C53.1197 117.358 60.2189 110.007 60.5166 109.709L61.3639 110.533C61.3639 110.533 54.7686 117.403 52.9136 130.25C58.0663 125.693 61.5013 124.067 62.1884 123.77L62.5548 123.609L63.1502 124.182L63.0128 124.571C62.4861 125.854 58.135 136.754 58.7991 147.655C59.6235 145.96 61.0433 143.487 63.9288 140.991L64.7303 140.304L64.8906 141.357C64.8906 141.357 66.6769 152.235 70.9364 158.028L69.9745 158.738L69.9516 158.715Z" fill="#1B1B1B" style="fill:#1B1B1B;fill:color(display-p3 0.1059 0.1059 0.1059);fill-opacity:1;"/>
<path d="M73.026 125.394C73.026 125.394 37.6676 110.143 37.095 70.365C37.0263 65.0063 39.7057 59.8309 44.3774 57.1973C54.4995 51.4723 66.2245 56.2355 65.9955 71.5329C65.7894 85.4792 76.7359 96.7003 76.7359 96.7003" fill="white" style="fill:white;fill-opacity:1;"/>
<path d="M72.7995 125.921C72.4331 125.761 37.0975 110.051 36.5021 70.3648C36.4105 64.6169 39.3189 59.3727 44.0822 56.6705C49.3722 53.6705 55.1432 53.4415 59.5172 56.0522C64.1889 58.8231 66.685 64.3192 66.5705 71.5328C66.3644 85.0668 77.0361 96.1735 77.1506 96.288L76.3033 97.1124C76.3033 97.1124 65.1965 85.5477 65.4026 71.5099C65.4942 64.7314 63.2042 59.6017 58.9217 57.0598C54.9142 54.6781 49.5783 54.9071 44.6547 57.701C40.2807 60.1742 37.6013 65.0291 37.67 70.3419C38.2425 109.25 72.8911 124.684 73.2575 124.822L72.7995 125.898V125.921Z" fill="#1B1B1B" style="fill:#1B1B1B;fill:color(display-p3 0.1059 0.1059 0.1059);fill-opacity:1;"/>
<path d="M62.1842 69.448C62.1842 69.448 56.2988 77.5547 45.7188 74.4632L62.1842 69.448Z" fill="white" style="fill:white;fill-opacity:1;"/>
<path d="M50.3633 75.7453C48.8747 75.7453 47.2717 75.5392 45.5312 75.0354L45.8519 73.9133C55.9052 76.8445 61.6074 69.1958 61.6761 69.1042L62.638 69.7913C62.638 69.7913 58.1953 75.7453 50.3633 75.7453Z" fill="#1B1B1B" style="fill:#1B1B1B;fill:color(display-p3 0.1059 0.1059 0.1059);fill-opacity:1;"/>
<path d="M118.14 164.922C110.239 164.922 102.957 156.265 100.209 152.533C100.323 156.403 100.14 156.609 99.957 156.769L99.2242 156.861C89.5144 150.953 84.5221 137.235 84.2015 125.739C80.1939 134.785 80.3313 139.869 80.3313 139.938L79.1633 140.121C79.003 139.525 75.7283 127.503 75.4992 120.266L72.5451 127.159L71.4688 126.701L75.8199 116.556L76.942 116.946C75.9115 120.862 78.2015 131.281 79.4839 136.594C79.9878 133.709 81.2244 129.06 84.2702 122.808L85.3923 123.083C84.9572 134.419 89.4915 148.937 99.041 155.372C99.041 154.296 99.0181 152.372 98.9494 150.609L100.026 150.266C100.117 150.403 108.911 163.754 118.117 163.754C127.323 163.754 134.17 149.281 134.239 149.121L135.361 149.281L136.186 154.571C149.147 144.495 151.552 124.388 151.575 124.182L152.697 123.999C152.789 124.182 154.529 128.144 154.735 135.197C156.59 128.671 158.811 117.266 158.834 117.106L159.934 116.946C160.094 117.266 163.827 124.709 163.827 132.724H162.636C162.636 127.159 160.712 121.778 159.613 119.144C158.697 123.747 156.201 135.632 154.621 139.182L153.499 138.907C153.796 133.205 152.995 129.014 152.354 126.655C151.231 132.541 147.338 147.907 136.094 156.059L135.155 155.67L134.468 151.182C132.293 155.143 126.178 164.853 118.117 164.853L118.14 164.922Z" fill="#1B1B1B" style="fill:#1B1B1B;fill:color(display-p3 0.1059 0.1059 0.1059);fill-opacity:1;"/>
<path d="M163.531 125.828C163.692 126.057 171.936 138.858 168.02 151.202C164.905 160.98 173.814 170.667 184.119 168.583C189.226 167.529 193.119 162.995 193.852 157.82C199.531 117.103 171.959 95.4164 167.264 95.0958" fill="white" style="fill:white;fill-opacity:1;"/>
<path d="M181.26 169.456C177.184 169.456 173.291 167.738 170.451 164.601C167.062 160.822 165.94 155.761 167.428 151.021C171.275 138.907 163.1 126.289 163.031 126.174L164.016 125.51C164.108 125.648 172.558 138.815 168.573 151.388C167.199 155.716 168.23 160.364 171.344 163.822C174.573 167.395 179.291 168.975 183.985 168.013C188.726 167.051 192.55 162.815 193.26 157.754C196.901 131.602 186.573 114.289 180.069 106.297C174.253 99.1291 168.733 95.8314 167.199 95.7169L167.291 94.549C169.329 94.6864 175.077 98.2818 180.985 105.564C187.604 113.717 198.138 131.35 194.428 157.937C193.649 163.502 189.458 168.128 184.237 169.204C183.252 169.41 182.245 169.502 181.283 169.502L181.26 169.456Z" fill="#1B1B1B" style="fill:#1B1B1B;fill:color(display-p3 0.1059 0.1059 0.1059);fill-opacity:1;"/>
<path d="M162.268 156.587C175.458 156.587 186.176 145.892 186.176 132.679C186.176 119.465 175.481 108.771 162.268 108.771C149.054 108.771 138.359 119.465 138.359 132.679C138.359 145.892 149.054 156.587 162.268 156.587Z" fill="#E8E8E8" style="fill:#E8E8E8;fill:color(display-p3 0.9098 0.9098 0.9098);fill-opacity:1;"/>
<path d="M162.262 157.181C148.751 157.181 137.781 146.189 137.781 132.7C137.781 119.212 148.774 108.22 162.262 108.22C175.75 108.22 186.743 119.212 186.743 132.7C186.743 146.189 175.75 157.181 162.262 157.181ZM162.262 109.365C149.415 109.365 138.949 119.83 138.949 132.677C138.949 145.525 149.415 155.99 162.262 155.99C175.109 155.99 185.575 145.525 185.575 132.677C185.575 119.83 175.109 109.365 162.262 109.365Z" fill="#1B1B1B" style="fill:#1B1B1B;fill:color(display-p3 0.1059 0.1059 0.1059);fill-opacity:1;"/>
<path d="M167.549 156.29C180.74 156.29 191.457 145.595 191.457 132.382C191.457 119.168 180.762 108.474 167.549 108.474C154.335 108.474 143.641 119.168 143.641 132.382C143.641 145.595 154.335 156.29 167.549 156.29Z" fill="white" style="fill:white;fill-opacity:1;"/>
<path d="M167.543 156.884C154.032 156.884 143.062 145.892 143.062 132.404C143.062 118.915 154.055 107.923 167.543 107.923C181.032 107.923 192.024 118.915 192.024 132.404C192.024 145.892 181.032 156.884 167.543 156.884ZM167.543 109.068C154.696 109.068 144.23 119.534 144.23 132.381C144.23 145.228 154.696 155.693 167.543 155.693C180.39 155.693 190.856 145.228 190.856 132.381C190.856 119.534 180.39 109.068 167.543 109.068Z" fill="#1B1B1B" style="fill:#1B1B1B;fill:color(display-p3 0.1059 0.1059 0.1059);fill-opacity:1;"/>
<path d="M167.54 152.323C178.556 152.323 187.487 143.393 187.487 132.377C187.487 121.361 178.556 112.431 167.54 112.431C156.524 112.431 147.594 121.361 147.594 132.377C147.594 143.393 156.524 152.323 167.54 152.323Z" fill="#53B98D" style="fill:#53B98D;fill:color(display-p3 0.3255 0.7255 0.5529);fill-opacity:1;"/>
<path d="M176.498 129.927C176.888 127.316 174.895 125.919 172.17 124.98L173.063 121.431L170.911 120.904L170.04 124.339C169.468 124.202 168.895 124.064 168.323 123.927L169.193 120.469L167.04 119.942L166.147 123.469C165.689 123.354 165.208 123.263 164.773 123.148L161.796 122.393L161.224 124.683C161.224 124.683 162.827 125.049 162.781 125.072C163.651 125.301 163.811 125.873 163.788 126.332L162.781 130.362C162.781 130.362 162.918 130.408 163.01 130.431L162.781 130.385L161.384 136.041C161.269 136.316 161.018 136.705 160.399 136.545C160.399 136.568 158.842 136.156 158.842 136.156L157.766 138.629L160.559 139.339C161.086 139.476 161.59 139.614 162.094 139.728L161.201 143.301L163.353 143.827L164.246 140.278C164.842 140.438 165.414 140.575 165.964 140.713L165.094 144.24L167.246 144.766L168.14 141.194C171.804 141.881 174.575 141.606 175.743 138.285C176.681 135.606 175.697 134.072 173.773 133.064C175.17 132.744 176.246 131.805 176.521 129.904M171.598 136.82C170.933 139.499 166.422 138.056 164.979 137.69L166.17 132.95C167.636 133.316 172.307 134.026 171.62 136.82M172.262 129.881C171.666 132.308 167.911 131.072 166.697 130.774L167.773 126.469C168.987 126.767 172.903 127.339 172.262 129.881Z" fill="white" style="fill:white;fill-opacity:1;"/>
<path d="M167.535 152.922C156.222 152.922 147.016 143.716 147.016 132.403C147.016 121.09 156.222 111.885 167.535 111.885C178.847 111.885 188.053 121.09 188.053 132.403C188.053 143.716 178.847 152.922 167.535 152.922ZM167.535 113.03C156.863 113.03 148.184 121.709 148.184 132.38C148.184 143.052 156.863 151.731 167.535 151.731C178.206 151.731 186.885 143.052 186.885 132.38C186.885 121.709 178.206 113.03 167.535 113.03Z" fill="#1B1B1B" style="fill:#1B1B1B;fill:color(display-p3 0.1059 0.1059 0.1059);fill-opacity:1;"/>
<path d="M169.969 158.601C169.969 158.601 173.633 148.135 186.251 150.815L169.969 158.601Z" fill="white" style="fill:white;fill-opacity:1;"/>
<path d="M170.513 158.806L169.391 158.416C169.391 158.416 173.352 147.493 186.36 150.264L186.108 151.409C174.154 148.867 170.65 158.393 170.513 158.806Z" fill="#1B1B1B" style="fill:#1B1B1B;fill:color(display-p3 0.1059 0.1059 0.1059);fill-opacity:1;"/>
<path d="M107.4 101.582H127.873C139.988 101.582 149.789 91.7577 149.789 79.6663C149.789 67.5521 139.965 57.7507 127.873 57.7507L107.4 57.7507C95.2858 57.7507 85.4844 67.575 85.4844 79.6663C85.4844 91.7806 95.3087 101.582 107.4 101.582Z" fill="#F2F2F2" style="fill:#F2F2F2;fill:color(display-p3 0.9490 0.9490 0.9490);fill-opacity:1;"/>
<path d="M127.875 102.156H107.402C94.9898 102.156 84.8906 92.0565 84.8906 79.6445C84.8906 67.2326 94.9898 57.1335 107.402 57.1335L127.875 57.1335C140.287 57.1335 150.386 67.2326 150.386 79.6445C150.386 92.0565 140.287 102.156 127.875 102.156ZM107.402 58.3244C95.631 58.3244 86.0815 67.8967 86.0815 79.6445C86.0815 91.3924 95.6539 100.988 107.402 100.988H127.875C139.646 100.988 149.195 91.4153 149.195 79.6674C149.195 67.9196 139.623 58.3244 127.875 58.3244L107.402 58.3244Z" fill="#1B1B1B" style="fill:#1B1B1B;fill:color(display-p3 0.1059 0.1059 0.1059);fill-opacity:1;"/>
<path d="M117.89 89.0305C116.218 89.0305 114.363 88.5725 112.554 87.1985C112.302 86.9924 112.256 86.626 112.44 86.3741C112.646 86.1222 113.012 86.0764 113.264 86.2596C117.73 89.6946 122.516 86.6031 122.722 86.4657C122.997 86.2825 123.363 86.3741 123.546 86.626C123.73 86.9008 123.661 87.2672 123.386 87.4504C123.34 87.4733 120.959 89.0305 117.867 89.0305H117.89Z" fill="#1B1B1B" style="fill:#1B1B1B;fill:color(display-p3 0.1059 0.1059 0.1059);fill-opacity:1;"/>
<path d="M114.241 77.1864C114.241 83.8525 108.837 89.2564 102.171 89.2564C95.5049 89.2564 90.1009 83.8525 90.1009 77.1864C90.1009 70.5202 95.5049 65.1163 102.171 65.1163C108.837 65.1163 114.241 70.5202 114.241 77.1864Z" stroke="black" style="stroke:black;stroke-opacity:1;" stroke-width="1.0143"/>
<path d="M114.203 74.7541C114.203 81.6575 108.731 87.2539 101.981 87.2539C96.5811 87.2544 92.2031 82.7769 92.2031 77.254C92.2031 72.8357 95.7053 69.2539 100.025 69.2539C103.481 69.2539 106.283 72.1192 106.283 75.654C106.283 78.4819 104.042 80.7742 101.277 80.7742C99.0652 80.7742 97.272 78.9401 97.272 76.6782C97.272 74.8683 98.7066 73.4016 100.476 73.4016C101.891 73.4016 103.039 74.5754 103.039 76.0232C103.039 77.1815 102.121 78.1203 100.989 78.1203C100.083 78.1203 99.3483 77.3691 99.3483 76.4426" stroke="black" style="stroke:black;stroke-opacity:1;" stroke-width="1.23" stroke-miterlimit="10"/>
<path d="M122.203 74.7541C122.203 81.6575 127.675 87.2539 134.425 87.2539C139.825 87.2544 144.203 82.7769 144.203 77.254C144.203 72.8357 140.701 69.2539 136.381 69.2539C132.925 69.2539 130.123 72.1192 130.123 75.654C130.123 78.4819 132.364 80.7742 135.129 80.7742C137.341 80.7742 139.134 78.9401 139.134 76.6782C139.134 74.8683 137.7 73.4016 135.931 73.4016C134.515 73.4016 133.367 74.5754 133.367 76.0232C133.367 77.1815 134.285 78.1203 135.418 78.1203C136.323 78.1203 137.058 77.3691 137.058 76.4426" stroke="black" style="stroke:black;stroke-opacity:1;" stroke-width="1.23" stroke-miterlimit="10"/>
<path d="M146.288 77.1864C146.288 83.8525 140.884 89.2564 134.218 89.2564C127.552 89.2564 122.148 83.8525 122.148 77.1864C122.148 70.5202 127.552 65.1163 134.218 65.1163C140.884 65.1163 146.288 70.5202 146.288 77.1864Z" stroke="black" style="stroke:black;stroke-opacity:1;" stroke-width="1.0143"/>
<path d="M114.344 75.3585C117.105 74.1092 118.779 74.1297 122.052 75.3585" stroke="black" style="stroke:black;stroke-opacity:1;" stroke-width="1.0143"/>
</svg>
