<svg width="25" height="25" viewBox="0 0 25 25" fill="none" xmlns="http://www.w3.org/2000/svg">
<g clip-path="url(#clip0_1465_94222)">
<path fill-rule="evenodd" clip-rule="evenodd" d="M9.87743 5.16091C11.0204 3.10391 13.9784 3.10391 15.1224 5.16091L21.7224 17.0429C22.8334 19.0429 21.3874 21.4999 19.1004 21.4999H5.89843C3.61143 21.4999 2.16543 19.0429 3.27643 17.0429L9.87643 5.16091H9.87743ZM12.4994 8.49991C12.7646 8.49991 13.019 8.60527 13.2065 8.79281C13.3941 8.98034 13.4994 9.2347 13.4994 9.49991V13.4999C13.4994 13.7651 13.3941 14.0195 13.2065 14.207C13.019 14.3946 12.7646 14.4999 12.4994 14.4999C12.2342 14.4999 11.9799 14.3946 11.7923 14.207C11.6048 14.0195 11.4994 13.7651 11.4994 13.4999V9.49991C11.4994 9.2347 11.6048 8.98034 11.7923 8.79281C11.9799 8.60527 12.2342 8.49991 12.4994 8.49991ZM13.4994 17.4999C13.4994 17.7651 13.3941 18.0195 13.2065 18.207C13.019 18.3946 12.7646 18.4999 12.4994 18.4999C12.2342 18.4999 11.9799 18.3946 11.7923 18.207C11.6048 18.0195 11.4994 17.7651 11.4994 17.4999C11.4994 17.2347 11.6048 16.9803 11.7923 16.7928C11.9799 16.6053 12.2342 16.4999 12.4994 16.4999C12.7646 16.4999 13.019 16.6053 13.2065 16.7928C13.3941 16.9803 13.4994 17.2347 13.4994 17.4999Z" fill="#21C789" style="fill:#21C789;fill:color(display-p3 0.1294 0.7804 0.5373);fill-opacity:1;"/>
</g>
<defs>
<clipPath id="clip0_1465_94222">
<rect width="24" height="24" fill="white" style="fill:white;fill-opacity:1;" transform="translate(0.5 0.5)"/>
</clipPath>
</defs>
</svg>
