<svg width="150" height="48" viewBox="0 0 150 48" fill="none" xmlns="http://www.w3.org/2000/svg">
<path d="M27.7147 10.0789L39.05 29.7086L41.9544 24.6737L27.7147 0L13.475 24.6737L16.3794 29.7086L27.7147 10.0789Z" fill="#101828" style="fill:#101828;fill:color(display-p3 0.0627 0.0941 0.1569);fill-opacity:1;"/>
<path d="M41.9544 34.7436L46.707 42.9651H40.8891L32.9681 29.2443L27.7147 38.349L26.4127 36.1093L22.4613 29.2443L14.5402 42.9651H8.72229L13.4749 34.7436L10.5614 29.7087L0 48H55.4293L44.8679 29.7087L41.9544 34.7436Z" fill="#101828" style="fill:#101828;fill:color(display-p3 0.0627 0.0941 0.1569);fill-opacity:1;"/>
<path d="M25.3111 24.8375C25.2929 26.0939 26.3945 27.2047 27.651 27.2138C28.962 27.2138 30.1001 26.1485 30.1183 24.883C30.1365 23.5901 28.9894 22.4247 27.7056 22.4247C26.4218 22.4247 25.3384 23.5264 25.3111 24.8375Z" fill="#101828" style="fill:#101828;fill:color(display-p3 0.0627 0.0941 0.1569);fill-opacity:1;"/>
<path d="M78.2366 27.2412L72.6463 13.2109H66.6008L75.3868 33.4233C74.8769 34.8436 74.1759 35.8725 73.3109 36.5098C72.4369 37.1471 71.2624 37.4567 69.7783 37.4294V42.4369C72.5188 42.5735 74.8041 41.9726 76.6432 40.616C78.4824 39.2685 79.9574 37.1016 81.0772 34.1152L88.889 13.2018H82.9801L78.2366 27.2321V27.2412Z" fill="#101828" style="fill:#101828;fill:color(display-p3 0.0627 0.0941 0.1569);fill-opacity:1;"/>
<path d="M106.925 15.6693C105.268 13.6389 102.938 12.6192 99.9421 12.6192C96.9466 12.6192 94.634 13.6844 92.5946 15.8149C90.5552 17.9454 89.5354 20.5585 89.5354 23.645C89.5354 26.7314 90.5552 29.3445 92.5946 31.475C94.634 33.6055 97.0832 34.6707 99.9421 34.6707C102.938 34.6707 105.268 33.651 106.925 31.6207V34.088H112.452V13.2019H106.925V15.6693ZM105.232 27.8786C104.103 28.9803 102.683 29.5266 100.971 29.5266C99.2592 29.5266 97.8389 28.9803 96.7281 27.8786C95.6174 26.777 95.0529 25.3657 95.0529 23.645C95.0529 21.9242 95.6083 20.5038 96.7281 19.4113C97.8389 18.3096 99.2592 17.7633 100.971 17.7633C102.683 17.7633 104.103 18.3096 105.232 19.4113C106.361 20.5129 106.925 21.9242 106.925 23.645C106.925 25.3657 106.361 26.7861 105.232 27.8786Z" fill="#101828" style="fill:#101828;fill:color(display-p3 0.0627 0.0941 0.1569);fill-opacity:1;"/>
<path d="M122.995 3.59631H117.469V34.0788H122.995V3.59631Z" fill="#101828" style="fill:#101828;fill:color(display-p3 0.0627 0.0941 0.1569);fill-opacity:1;"/>
<path d="M144.327 13.2019V15.6693C142.67 13.6389 140.34 12.6192 137.344 12.6192C134.349 12.6192 132.036 13.6844 129.997 15.8149C127.957 17.9454 126.938 20.5585 126.938 23.645C126.938 26.7314 127.957 29.3445 129.997 31.475C132.036 33.6055 134.485 34.6707 137.344 34.6707C140.34 34.6707 142.67 33.651 144.327 31.6207V34.088H149.854V13.2019H144.327ZM142.634 27.8786C141.505 28.9803 140.085 29.5266 138.373 29.5266C136.661 29.5266 135.241 28.9803 134.13 27.8786C133.019 26.777 132.455 25.3657 132.455 23.645C132.455 21.9242 133.01 20.5038 134.13 19.4113C135.241 18.3096 136.661 17.7633 138.373 17.7633C140.085 17.7633 141.505 18.3096 142.634 19.4113C143.763 20.5129 144.327 21.9242 144.327 23.645C144.327 25.3657 143.763 26.7861 142.634 27.8786Z" fill="#101828" style="fill:#101828;fill:color(display-p3 0.0627 0.0941 0.1569);fill-opacity:1;"/>
</svg>
