<svg width="37" height="36" viewBox="0 0 37 36" fill="none" xmlns="http://www.w3.org/2000/svg">
<path d="M36.9795 0H0.981445V36H36.9795V0Z" fill="black"/>
<path fill-rule="evenodd" clip-rule="evenodd" d="M18.981 10.3081L24.4868 19.8455L25.9005 17.3984L18.981 5.41406L12.0615 17.3984L13.4752 19.8455L18.981 10.3081ZM27.3114 19.8455L25.9005 22.2925L28.2042 26.2882H25.3797L23.4562 22.9539L21.5328 19.6223L19.6093 22.9539L18.9783 24.0451L18.35 22.9539L16.4265 19.6223L14.5031 22.9539L12.5796 26.2882H9.75505L12.0615 22.2925L10.6479 19.8455L5.51685 28.7325H32.4424L27.3114 19.8455ZM18.9479 18.6357C18.3389 18.633 17.8043 18.0901 17.8126 17.4811C17.8209 16.8446 18.3472 16.31 18.9728 16.31C19.5983 16.3072 20.1577 16.8749 20.1467 17.5032C20.1384 18.1177 19.5845 18.6357 18.9479 18.6357Z" fill="white"/>
</svg>
